<?xml version="1.0" encoding="UTF-8"?>
<svg width="23px" height="23px" viewBox="0 0 23 23" version="1.1" xmlns="http://www.w3.org/2000/svg" xmlns:xlink="http://www.w3.org/1999/xlink">
    <title>446E7665-BB22-4D91-8225-90ACA5C71D1E</title>
    <g id="Page-1" stroke="none" stroke-width="1" fill="none" fill-rule="evenodd">
        <g id="Houm-assignment" transform="translate(-382.000000, -668.000000)">
            <g id="Group-2" transform="translate(382.000000, 659.000000)">
                <g id="Group-5" transform="translate(0.000000, 9.000000)">
                    <circle id="Oval" fill="#FF1C1A" cx="11.5" cy="11.5" r="11.5"></circle>
                    <path d="M12.4341216,8.75971275 L15.5725317,14.2519305 C15.7095367,14.4916893 15.6262384,14.7971166 15.3864796,14.9341216 C15.3109308,14.9772923 15.2254236,15 15.1384102,15 L8.86158984,15 C8.58544746,15 8.36158984,14.7761424 8.36158984,14.5 C8.36158984,14.4129865 8.3842975,14.3274794 8.42746827,14.2519305 L11.5658784,8.75971275 C11.7028834,8.51995403 12.0083107,8.43665566 12.2480695,8.57366065 C12.3255851,8.6179553 12.3898269,8.68219711 12.4341216,8.75971275 Z" id="Triangle" fill="#FFFFFF" transform="translate(12.000000, 11.500000) rotate(-270.000000) translate(-12.000000, -11.500000) "></path>
                </g>
            </g>
        </g>
    </g>
</svg>